# xmcd CD database file
#
# Track frame offsets:
#	150
#	17727
#	35037
#	50807
#	70992
#	92475
#	110107
#	126660
#	142910
#	157115
#	173275
#	187700
#	202142
#	215572
#	233030
#	255250
#
# Disc length: 3684 seconds
#
# Revision: 0
# Processed by: cddbd v1.5.2PL0 Copyright (c) Steve Scherf et al.
# Submitted via: Feurio! 1.68 - http://www.feurio.com
#
DISCID=e50e6210
DTITLE=Various Artist - Partytime 2000
DYEAR=1900
DGENRE=Pop
TTITLE0=Irene Cara - Flashdance
TTITLE1=Nick Straker - A walk in the Park
TTITLE2=Shanon - let the Music play
TTITLE3=Anita Ward - Ring my Bell
TTITLE4=Village People - Y.M.C.A.
TTITLE5=The catch - 25 Years
TTITLE6=Moti Special - Cold Days, Hot Nights
TTITLE7=Rose laurens - Africa
TTITLE8=Eruption - I can´t stand the Rain
TTITLE9=la Bionda - One for you, One for me
TTITLE10=Ottawan - Hands up
TTITLE11=Carl Douglas - Kung fu fighting
TTITLE12=Ami Stewart - Knock on Wood
TTITLE13=Sister Sledge - We are Family
TTITLE14=The Whispers - And the beat goes on
TTITLE15=Indeep - Last Night a DJ saved my Life
EXTD=
EXTT0=
EXTT1=
EXTT2=
EXTT3=
EXTT4=
EXTT5=
EXTT6=
EXTT7=
EXTT8=
EXTT9=
EXTT10=
EXTT11=
EXTT12=
EXTT13=
EXTT14=
EXTT15=
PLAYORDER=
